G04*
G04 #@! TF.GenerationSoftware,Altium Limited,Altium Designer,25.1.2 (22)*
G04*
G04 Layer_Color=8388736*
%FSLAX44Y44*%
%MOMM*%
G71*
G04*
G04 #@! TF.SameCoordinates,7166223C-B6ED-409E-8759-D5DD53971EAE*
G04*
G04*
G04 #@! TF.FilePolarity,Negative*
G04*
G01*
G75*
%ADD26R,2.0000X1.4000*%
%ADD35R,1.2500X2.0000*%
%ADD36R,1.1000X1.2500*%
G04:AMPARAMS|DCode=37|XSize=1.35mm|YSize=1.2mm|CornerRadius=0mm|HoleSize=0mm|Usage=FLASHONLY|Rotation=150.000|XOffset=0mm|YOffset=0mm|HoleType=Round|Shape=Rectangle|*
%AMROTATEDRECTD37*
4,1,4,0.8846,0.1821,0.2846,-0.8571,-0.8846,-0.1821,-0.2846,0.8571,0.8846,0.1821,0.0*
%
%ADD37ROTATEDRECTD37*%

G04:AMPARAMS|DCode=38|XSize=1.35mm|YSize=1.6mm|CornerRadius=0mm|HoleSize=0mm|Usage=FLASHONLY|Rotation=60.000|XOffset=0mm|YOffset=0mm|HoleType=Round|Shape=Rectangle|*
%AMROTATEDRECTD38*
4,1,4,0.3553,-0.9846,-1.0303,-0.1846,-0.3553,0.9846,1.0303,0.1846,0.3553,-0.9846,0.0*
%
%ADD38ROTATEDRECTD38*%

G04:AMPARAMS|DCode=39|XSize=1.25mm|YSize=1.1mm|CornerRadius=0mm|HoleSize=0mm|Usage=FLASHONLY|Rotation=130.000|XOffset=0mm|YOffset=0mm|HoleType=Round|Shape=Rectangle|*
%AMROTATEDRECTD39*
4,1,4,0.8231,-0.1252,-0.0196,-0.8323,-0.8231,0.1252,0.0196,0.8323,0.8231,-0.1252,0.0*
%
%ADD39ROTATEDRECTD39*%

%ADD40R,1.3500X1.2000*%
%ADD41O,1.5800X0.4700*%
%ADD42O,0.4700X1.5800*%
G04:AMPARAMS|DCode=43|XSize=1.35mm|YSize=1.2mm|CornerRadius=0mm|HoleSize=0mm|Usage=FLASHONLY|Rotation=210.000|XOffset=0mm|YOffset=0mm|HoleType=Round|Shape=Rectangle|*
%AMROTATEDRECTD43*
4,1,4,0.2846,0.8571,0.8846,-0.1821,-0.2846,-0.8571,-0.8846,0.1821,0.2846,0.8571,0.0*
%
%ADD43ROTATEDRECTD43*%

%ADD44R,1.2000X1.3500*%
G04:AMPARAMS|DCode=45|XSize=2.48mm|YSize=1.9mm|CornerRadius=0mm|HoleSize=0mm|Usage=FLASHONLY|Rotation=210.000|XOffset=0mm|YOffset=0mm|HoleType=Round|Shape=Rectangle|*
%AMROTATEDRECTD45*
4,1,4,0.5989,1.4427,1.5489,-0.2027,-0.5989,-1.4427,-1.5489,0.2027,0.5989,1.4427,0.0*
%
%ADD45ROTATEDRECTD45*%

%ADD46O,0.5900X1.7000*%
G04:AMPARAMS|DCode=47|XSize=1.35mm|YSize=1.2mm|CornerRadius=0mm|HoleSize=0mm|Usage=FLASHONLY|Rotation=315.000|XOffset=0mm|YOffset=0mm|HoleType=Round|Shape=Rectangle|*
%AMROTATEDRECTD47*
4,1,4,-0.9016,0.0530,-0.0530,0.9016,0.9016,-0.0530,0.0530,-0.9016,-0.9016,0.0530,0.0*
%
%ADD47ROTATEDRECTD47*%

G04:AMPARAMS|DCode=48|XSize=1.25mm|YSize=1.1mm|CornerRadius=0mm|HoleSize=0mm|Usage=FLASHONLY|Rotation=210.000|XOffset=0mm|YOffset=0mm|HoleType=Round|Shape=Rectangle|*
%AMROTATEDRECTD48*
4,1,4,0.2663,0.7888,0.8163,-0.1638,-0.2663,-0.7888,-0.8163,0.1638,0.2663,0.7888,0.0*
%
%ADD48ROTATEDRECTD48*%

G04:AMPARAMS|DCode=49|XSize=1.8mm|YSize=1.7mm|CornerRadius=0mm|HoleSize=0mm|Usage=FLASHONLY|Rotation=130.000|XOffset=0mm|YOffset=0mm|HoleType=Round|Shape=Rectangle|*
%AMROTATEDRECTD49*
4,1,4,1.2296,-0.1431,-0.0726,-1.2358,-1.2296,0.1431,0.0726,1.2358,1.2296,-0.1431,0.0*
%
%ADD49ROTATEDRECTD49*%

%ADD50O,0.8000X0.7000*%
G04:AMPARAMS|DCode=51|XSize=1.25mm|YSize=1.1mm|CornerRadius=0mm|HoleSize=0mm|Usage=FLASHONLY|Rotation=120.000|XOffset=0mm|YOffset=0mm|HoleType=Round|Shape=Rectangle|*
%AMROTATEDRECTD51*
4,1,4,0.7888,-0.2663,-0.1638,-0.8163,-0.7888,0.2663,0.1638,0.8163,0.7888,-0.2663,0.0*
%
%ADD51ROTATEDRECTD51*%

%ADD52R,0.9700X1.2700*%
G04:AMPARAMS|DCode=53|XSize=1.8mm|YSize=1.7mm|CornerRadius=0mm|HoleSize=0mm|Usage=FLASHONLY|Rotation=210.000|XOffset=0mm|YOffset=0mm|HoleType=Round|Shape=Rectangle|*
%AMROTATEDRECTD53*
4,1,4,0.3544,1.1861,1.2044,-0.2861,-0.3544,-1.1861,-1.2044,0.2861,0.3544,1.1861,0.0*
%
%ADD53ROTATEDRECTD53*%

%ADD54R,1.7000X1.8000*%
%ADD55C,3.6000*%
%ADD56P,2.2627X4X265.0*%
%ADD57C,1.6000*%
%ADD58C,1.4000*%
%ADD59C,1.6580*%
%ADD60C,2.3000*%
%ADD61R,1.6580X1.6580*%
%ADD62O,1.8000X3.3000*%
%ADD63R,1.6000X1.6000*%
%ADD64P,1.9799X4X375.0*%
D26*
X116000Y157000D02*
D03*
Y193000D02*
D03*
D35*
X110999Y249998D02*
D03*
D36*
X306500Y275000D02*
D03*
X250000Y187500D02*
D03*
X127000Y257000D02*
D03*
X237000Y187500D02*
D03*
X140000Y257000D02*
D03*
X293500Y275000D02*
D03*
D37*
X250000Y249072D02*
D03*
X211000Y289928D02*
D03*
X258000Y262928D02*
D03*
X203000Y276072D02*
D03*
D38*
X235000Y255000D02*
D03*
X224331Y282521D02*
D03*
X244250Y271021D02*
D03*
X215081Y266500D02*
D03*
D39*
X256979Y115178D02*
D03*
X247021Y106822D02*
D03*
D40*
X237000Y203000D02*
D03*
Y219000D02*
D03*
D41*
X220500Y202500D02*
D03*
X139500Y157500D02*
D03*
Y192500D02*
D03*
Y197500D02*
D03*
X220500Y207500D02*
D03*
X139500Y152500D02*
D03*
X220500D02*
D03*
Y197500D02*
D03*
Y192500D02*
D03*
Y187500D02*
D03*
Y182500D02*
D03*
Y177500D02*
D03*
Y172500D02*
D03*
Y167500D02*
D03*
Y162500D02*
D03*
Y157500D02*
D03*
X139500Y162500D02*
D03*
Y167500D02*
D03*
Y172500D02*
D03*
Y177500D02*
D03*
Y182500D02*
D03*
Y187500D02*
D03*
Y202500D02*
D03*
Y207500D02*
D03*
D42*
X202500Y139500D02*
D03*
X207500D02*
D03*
X182500D02*
D03*
X172500D02*
D03*
X177500D02*
D03*
X197500D02*
D03*
X192500D02*
D03*
X187500D02*
D03*
X167500D02*
D03*
X162500D02*
D03*
X157500D02*
D03*
X152500D02*
D03*
D43*
X184000Y335928D02*
D03*
X192000Y322072D02*
D03*
D44*
X171000Y240000D02*
D03*
Y256000D02*
D03*
X125000Y240000D02*
D03*
X121000Y141000D02*
D03*
X137000D02*
D03*
X155000Y256000D02*
D03*
Y240000D02*
D03*
X141000D02*
D03*
D45*
X84163Y283000D02*
D03*
X163837Y329000D02*
D03*
D46*
X172500Y220500D02*
D03*
X152500D02*
D03*
X157500D02*
D03*
X162500D02*
D03*
X167500D02*
D03*
X177500D02*
D03*
X182500D02*
D03*
X187500D02*
D03*
X192500D02*
D03*
X197500D02*
D03*
X202500D02*
D03*
X207500D02*
D03*
D47*
X187157Y116407D02*
D03*
X175843Y105093D02*
D03*
D48*
X67750Y124629D02*
D03*
X74250Y113371D02*
D03*
D49*
X208679Y79144D02*
D03*
X224000Y92000D02*
D03*
D50*
X111000Y257000D02*
D03*
Y244000D02*
D03*
D51*
X167113Y309680D02*
D03*
X178371Y316180D02*
D03*
D52*
X168950Y272000D02*
D03*
X155050D02*
D03*
D53*
X65366Y86706D02*
D03*
X55366Y104026D02*
D03*
D54*
X315000Y254000D02*
D03*
X295000Y254000D02*
D03*
D55*
X57500Y249000D02*
D03*
X207750Y40750D02*
D03*
D56*
X261849Y61930D02*
D03*
D57*
X281000Y78000D02*
D03*
X53000Y202000D02*
D03*
D58*
X250875Y302784D02*
D03*
X229224Y315284D02*
D03*
D59*
X320000Y182400D02*
D03*
X320000Y207800D02*
D03*
D60*
X158400Y47000D02*
D03*
X133000D02*
D03*
X158400Y75000D02*
D03*
X133000D02*
D03*
D61*
X320000Y157000D02*
D03*
D62*
X276000Y180000D02*
D03*
X84000D02*
D03*
D63*
X53000Y177000D02*
D03*
D64*
X272526Y290284D02*
D03*
M02*
