M48
;Layer_Color=9474304
;FILE_FORMAT=4:4
METRIC,LZ
;TYPE=PLATED
T01F00S00C0.3000
T02F00S00C0.4000
T04F00S00C0.8500
T05F00S00C0.9000
T06F00S00C1.0000
;TYPE=NON_PLATED
T07F00S00C3.3000
%
T01
X00187157Y00116407
X00101Y00215
T02
X00036Y00129
X00071Y0014
X00101Y00145
X00109Y00137
X00096Y00109
X00101Y00095
X00083549Y00093815
X00187238Y00159831
X00197Y00162
X00238125Y00148125
X00247Y00201
X00229Y00234337
X00232Y00246
X00210768Y00234337
X00182Y002515
X00142Y00271
X0011Y00284
X00067Y0028
X00121Y0022875
X00132235Y00230529
X00202Y00298
X00199399Y00336913
X00292Y00287806
T04
X0032Y00157
X0032Y001824
X0032Y002078
T05
X00229224Y00315284
X00250875Y00302784
X00272526Y00290284
T06
X00133Y00047
X001584
X001584Y00075
X00133
X00261849Y0006193
X00281Y00078
X00053Y00177
Y00202
T07
X0020775Y0004075
X000575Y00249
M30
