G04*
G04 #@! TF.GenerationSoftware,Altium Limited,Altium Designer,25.1.2 (22)*
G04*
G04 Layer_Color=32896*
%FSLAX44Y44*%
%MOMM*%
G71*
G04*
G04 #@! TF.SameCoordinates,7166223C-B6ED-409E-8759-D5DD53971EAE*
G04*
G04*
G04 #@! TF.FilePolarity,Positive*
G04*
G01*
G75*
%ADD10C,0.2500*%
%ADD15C,0.1000*%
G36*
X330396Y77787D02*
X330544Y77703D01*
X330636Y77624D01*
X330661Y77594D01*
X330674Y77579D01*
X331965Y76040D01*
X332986Y76897D01*
X333090Y76958D01*
X333179Y77007D01*
X333352Y77048D01*
X333467Y77066D01*
X333507Y77049D01*
X333686Y76990D01*
X333821Y76922D01*
X333900Y76859D01*
X333926Y76828D01*
X334010Y76666D01*
X334054Y76521D01*
X334072Y76406D01*
X334067Y76350D01*
X334058Y76238D01*
X334022Y76156D01*
X333951Y75993D01*
X333873Y75901D01*
X332822Y75019D01*
X334113Y73480D01*
X334189Y73389D01*
X334223Y73287D01*
X334280Y73127D01*
X334282Y73000D01*
X334280Y72972D01*
X334265Y72959D01*
X334207Y72780D01*
X334138Y72645D01*
X334060Y72553D01*
X334030Y72528D01*
X333880Y72428D01*
X333735Y72384D01*
X333607Y72381D01*
X333564Y72371D01*
X333358Y72431D01*
X333209Y72515D01*
X333118Y72593D01*
X333105Y72609D01*
X333092Y72624D01*
X331801Y74163D01*
X329379Y72130D01*
X336749Y67151D01*
X336893Y67012D01*
X336990Y66834D01*
X337047Y66674D01*
X337052Y66574D01*
X337047Y66518D01*
X337002Y66325D01*
X336918Y66177D01*
X336840Y66085D01*
X336718Y65982D01*
X336644Y65946D01*
X336586Y65923D01*
X336558Y65926D01*
X336415Y65910D01*
X336247Y65925D01*
X336124Y65978D01*
X336043Y66013D01*
X336002Y66031D01*
X327898Y71511D01*
X327766Y71608D01*
X327663Y71729D01*
X327579Y71892D01*
X327550Y72050D01*
X327575Y72175D01*
X327631Y72325D01*
X327697Y72432D01*
X327775Y72524D01*
X330944Y75183D01*
X329653Y76722D01*
X329543Y76915D01*
X329487Y77076D01*
X329481Y77175D01*
X329486Y77231D01*
X329544Y77409D01*
X329625Y77529D01*
X329704Y77621D01*
X329734Y77647D01*
X329899Y77759D01*
X330059Y77816D01*
X330159Y77821D01*
X330202Y77832D01*
X330396Y77787D01*
D02*
G37*
G36*
X323567Y72187D02*
X323746Y72129D01*
X323881Y72060D01*
X323960Y71997D01*
X323986Y71967D01*
X324070Y71804D01*
X324114Y71659D01*
X324132Y71544D01*
X324127Y71488D01*
X324118Y71376D01*
X324082Y71295D01*
X324027Y71144D01*
X323948Y71052D01*
X321328Y68854D01*
X321203Y68723D01*
X321094Y68606D01*
X321000Y68501D01*
X320998Y68473D01*
X320983Y68460D01*
X320925Y68282D01*
X320882Y68116D01*
X320857Y67991D01*
X320839Y67950D01*
X320850Y67752D01*
X320876Y67566D01*
X320933Y67406D01*
X320989Y67245D01*
X321051Y67141D01*
X321099Y67052D01*
X321151Y66991D01*
X321163Y66976D01*
X326354Y60791D01*
X326497Y60651D01*
X326614Y60542D01*
X326706Y60463D01*
X326734Y60461D01*
X326747Y60446D01*
X326923Y60360D01*
X327089Y60317D01*
X327201Y60307D01*
X327257Y60302D01*
X327468Y60298D01*
X327654Y60324D01*
X327814Y60381D01*
X327974Y60437D01*
X328078Y60499D01*
X328167Y60547D01*
X330818Y62772D01*
X330923Y62833D01*
X331012Y62882D01*
X331185Y62923D01*
X331299Y62941D01*
X331340Y62924D01*
X331518Y62866D01*
X331654Y62797D01*
X331733Y62734D01*
X331758Y62704D01*
X331843Y62541D01*
X331887Y62396D01*
X331905Y62281D01*
X331900Y62225D01*
X331890Y62113D01*
X331870Y62044D01*
X331799Y61881D01*
X331721Y61789D01*
X329115Y59603D01*
X328785Y59378D01*
X328445Y59196D01*
X328111Y59098D01*
X327808Y59026D01*
X327536Y58979D01*
X327325Y58983D01*
X327197Y58980D01*
X327141Y58985D01*
X326752Y59048D01*
X326395Y59164D01*
X326099Y59331D01*
X325831Y59495D01*
X325619Y59655D01*
X325463Y59810D01*
X325397Y59858D01*
X325371Y59889D01*
X325346Y59919D01*
X325333Y59934D01*
X320155Y66104D01*
X319930Y66435D01*
X319748Y66775D01*
X319650Y67109D01*
X319578Y67411D01*
X319531Y67684D01*
X319536Y67895D01*
X319533Y68022D01*
X319538Y68078D01*
X319615Y68481D01*
X319731Y68838D01*
X319898Y69134D01*
X320063Y69402D01*
X320222Y69614D01*
X320362Y69757D01*
X320410Y69823D01*
X323061Y72048D01*
X323165Y72109D01*
X323254Y72158D01*
X323412Y72186D01*
X323526Y72204D01*
X323567Y72187D01*
D02*
G37*
G36*
X245685Y159960D02*
X246063Y159881D01*
X246381Y159741D01*
X246659Y159602D01*
X246898Y159463D01*
X247057Y159324D01*
X247156Y159244D01*
X247196Y159205D01*
X247455Y158886D01*
X247654Y158568D01*
X247773Y158250D01*
X247872Y157951D01*
X247932Y157693D01*
X247952Y157494D01*
X247972Y157415D01*
Y153954D01*
X247952Y153835D01*
X247932Y153735D01*
X247852Y153596D01*
X247793Y153497D01*
X247753Y153477D01*
X247594Y153377D01*
X247455Y153318D01*
X247355Y153298D01*
X247316D01*
X247136Y153337D01*
X246997Y153397D01*
X246898Y153457D01*
X246858Y153497D01*
X246779Y153576D01*
X246739Y153656D01*
X246659Y153795D01*
X246639Y153914D01*
Y157335D01*
X246619Y157514D01*
X246600Y157673D01*
X246580Y157812D01*
X246560Y157832D01*
Y157852D01*
X246460Y158011D01*
X246361Y158150D01*
X246281Y158250D01*
X246261Y158290D01*
X246102Y158409D01*
X245943Y158508D01*
X245784Y158568D01*
X245625Y158628D01*
X245506Y158648D01*
X245406Y158667D01*
X245327D01*
X245307D01*
X237232D01*
X237033Y158648D01*
X236874Y158628D01*
X236755Y158608D01*
X236735Y158588D01*
X236715D01*
X236536Y158508D01*
X236397Y158409D01*
X236317Y158329D01*
X236278Y158290D01*
X236138Y158131D01*
X236039Y157971D01*
X235979Y157812D01*
X235919Y157653D01*
X235900Y157534D01*
X235880Y157434D01*
Y153974D01*
X235860Y153855D01*
X235840Y153755D01*
X235760Y153596D01*
X235701Y153497D01*
X235661Y153477D01*
X235502Y153377D01*
X235363Y153318D01*
X235263Y153298D01*
X235223D01*
X235044Y153337D01*
X234905Y153397D01*
X234806Y153457D01*
X234766Y153497D01*
X234686Y153576D01*
X234647Y153636D01*
X234567Y153795D01*
X234547Y153914D01*
Y157315D01*
X234587Y157713D01*
X234667Y158091D01*
X234806Y158409D01*
X234945Y158687D01*
X235084Y158926D01*
X235223Y159085D01*
X235303Y159185D01*
X235343Y159224D01*
X235641Y159483D01*
X235959Y159682D01*
X236278Y159801D01*
X236576Y159901D01*
X236834Y159960D01*
X237053Y159980D01*
X237133Y160000D01*
X237173D01*
X237212D01*
X237232D01*
X245287D01*
X245685Y159960D01*
D02*
G37*
G36*
X238008Y150593D02*
X238087Y150573D01*
X238246Y150493D01*
X238346Y150434D01*
X238366Y150394D01*
X238386D01*
X238505Y150235D01*
X238565Y150076D01*
X238584Y149976D01*
Y149937D01*
X238545Y149758D01*
X238485Y149599D01*
X238425Y149499D01*
X238386Y149459D01*
X236834Y147908D01*
X247316D01*
X247534Y147868D01*
X247693Y147809D01*
X247773Y147749D01*
X247813Y147709D01*
X247912Y147550D01*
X247952Y147411D01*
X247972Y147291D01*
Y147252D01*
X247952Y147053D01*
X247892Y146894D01*
X247833Y146814D01*
X247813Y146774D01*
X247654Y146655D01*
X247495Y146595D01*
X247375Y146575D01*
X247335D01*
X247316D01*
X235223D01*
X234985Y146595D01*
X234806Y146655D01*
X234686Y146735D01*
X234647Y146755D01*
X234527Y146914D01*
X234468Y147033D01*
X234448Y147113D01*
Y147132D01*
X234468Y147252D01*
X234488Y147351D01*
X234508Y147431D01*
X234527Y147451D01*
X234587Y147550D01*
X234667Y147649D01*
X234726Y147709D01*
X234746Y147729D01*
X237451Y150414D01*
X237610Y150533D01*
X237769Y150593D01*
X237869Y150613D01*
X237888D01*
X237908D01*
X238008Y150593D01*
D02*
G37*
G36*
X247495Y143950D02*
X247654Y143891D01*
X247753Y143831D01*
X247773Y143811D01*
X247793D01*
X247892Y143652D01*
X247952Y143493D01*
X247972Y143354D01*
Y140629D01*
X247952Y140370D01*
X247932Y140132D01*
X247813Y139674D01*
X247654Y139277D01*
X247475Y138938D01*
X247296Y138640D01*
X247156Y138441D01*
X247077Y138362D01*
X247037Y138302D01*
X247017Y138282D01*
X246997Y138262D01*
X246798Y138083D01*
X246600Y137924D01*
X246401Y137805D01*
X246202Y137685D01*
X245804Y137507D01*
X245446Y137387D01*
X245108Y137327D01*
X244969Y137288D01*
X244869D01*
X244770Y137268D01*
X244690D01*
X244650D01*
X244631D01*
X243298D01*
X243000Y137288D01*
X242721Y137347D01*
X242463Y137407D01*
X242244Y137467D01*
X242045Y137546D01*
X241906Y137606D01*
X241826Y137646D01*
X241786Y137666D01*
X241528Y137805D01*
X241309Y137964D01*
X241110Y138103D01*
X240951Y138262D01*
X240812Y138382D01*
X240713Y138481D01*
X240653Y138560D01*
X240633Y138580D01*
X240434Y138342D01*
X240215Y138143D01*
X240016Y137984D01*
X239818Y137845D01*
X239659Y137745D01*
X239539Y137666D01*
X239440Y137626D01*
X239420Y137606D01*
X239161Y137507D01*
X238883Y137427D01*
X238644Y137367D01*
X238405Y137308D01*
X238207Y137288D01*
X238048Y137268D01*
X237948D01*
X237908D01*
X237650D01*
X237411Y137308D01*
X236974Y137407D01*
X236576Y137546D01*
X236238Y137685D01*
X235979Y137845D01*
X235780Y137984D01*
X235701Y138043D01*
X235641Y138083D01*
X235621Y138103D01*
X235601Y138123D01*
X235422Y138302D01*
X235263Y138501D01*
X235124Y138700D01*
X235005Y138899D01*
X234826Y139316D01*
X234686Y139734D01*
X234627Y140072D01*
X234607Y140231D01*
X234587Y140370D01*
X234567Y140470D01*
Y143433D01*
X234607Y143533D01*
X234667Y143672D01*
X234746Y143771D01*
X234766Y143811D01*
X234786D01*
X234945Y143911D01*
X235104Y143950D01*
X235203Y143970D01*
X235223D01*
X235243D01*
X235442Y143950D01*
X235581Y143891D01*
X235681Y143831D01*
X235721Y143811D01*
X235820Y143652D01*
X235880Y143493D01*
X235900Y143354D01*
Y140629D01*
X235919Y140291D01*
X235999Y139993D01*
X236098Y139734D01*
X236198Y139515D01*
X236317Y139356D01*
X236417Y139237D01*
X236496Y139157D01*
X236516Y139137D01*
X236735Y138978D01*
X236974Y138859D01*
X237192Y138779D01*
X237411Y138720D01*
X237610Y138680D01*
X237749Y138660D01*
X237849D01*
X237888D01*
X238187Y138680D01*
X238465Y138740D01*
X238704Y138819D01*
X238903Y138899D01*
X239082Y138998D01*
X239201Y139078D01*
X239281Y139137D01*
X239300Y139157D01*
X239519Y139376D01*
X239659Y139635D01*
X239778Y139873D01*
X239857Y140112D01*
X239897Y140311D01*
X239917Y140470D01*
X239937Y140589D01*
Y142081D01*
X239977Y142180D01*
X240056Y142339D01*
X240136Y142439D01*
X240156Y142479D01*
X240176D01*
X240335Y142578D01*
X240474Y142618D01*
X240573Y142638D01*
X240593D01*
X240613D01*
X240792Y142618D01*
X240951Y142538D01*
X241051Y142479D01*
X241071Y142459D01*
X241090D01*
X241190Y142299D01*
X241250Y142140D01*
X241269Y142021D01*
Y140629D01*
X241289Y140331D01*
X241369Y140052D01*
X241448Y139794D01*
X241568Y139595D01*
X241667Y139416D01*
X241767Y139296D01*
X241846Y139217D01*
X241866Y139197D01*
X242105Y138998D01*
X242343Y138859D01*
X242582Y138740D01*
X242801Y138680D01*
X243000Y138640D01*
X243159Y138600D01*
X243258D01*
X243298D01*
X244631D01*
X244929Y138620D01*
X245207Y138700D01*
X245446Y138779D01*
X245665Y138899D01*
X245824Y138998D01*
X245963Y139097D01*
X246043Y139177D01*
X246063Y139197D01*
X246261Y139436D01*
X246401Y139674D01*
X246500Y139913D01*
X246560Y140132D01*
X246600Y140331D01*
X246639Y140490D01*
Y143433D01*
X246679Y143533D01*
X246759Y143692D01*
X246838Y143771D01*
X246858Y143811D01*
X246878D01*
X247037Y143911D01*
X247176Y143950D01*
X247276Y143970D01*
X247296D01*
X247316D01*
X247495Y143950D01*
D02*
G37*
G36*
X178813Y223480D02*
X178972Y223401D01*
X179091Y223301D01*
X179170Y223162D01*
X179210Y223043D01*
X179230Y222943D01*
X179250Y222864D01*
Y217454D01*
X179230Y217335D01*
X179210Y217235D01*
X179131Y217096D01*
X179071Y216997D01*
X179031Y216977D01*
X178872Y216877D01*
X178733Y216818D01*
X178633Y216798D01*
X178594D01*
X178415Y216838D01*
X178276Y216897D01*
X178176Y216957D01*
X178136Y216997D01*
X178057Y217076D01*
X178017Y217156D01*
X177937Y217295D01*
X177917Y217414D01*
Y222167D01*
X166502D01*
X166382D01*
X166283Y222207D01*
X166124Y222267D01*
X166024Y222346D01*
X166005Y222366D01*
Y222386D01*
X165905Y222545D01*
X165845Y222685D01*
X165826Y222804D01*
Y222844D01*
X165845Y223023D01*
X165905Y223162D01*
X165985Y223261D01*
X166005Y223301D01*
X166183Y223421D01*
X166343Y223480D01*
X166462Y223500D01*
X166482D01*
X166502D01*
X178594D01*
X178813Y223480D01*
D02*
G37*
G36*
X169286Y214093D02*
X169366Y214073D01*
X169525Y213993D01*
X169624Y213934D01*
X169644Y213894D01*
X169664D01*
X169783Y213735D01*
X169843Y213576D01*
X169863Y213476D01*
Y213437D01*
X169823Y213258D01*
X169763Y213099D01*
X169704Y212999D01*
X169664Y212959D01*
X168113Y211408D01*
X178594D01*
X178813Y211368D01*
X178972Y211308D01*
X179051Y211249D01*
X179091Y211209D01*
X179190Y211050D01*
X179230Y210911D01*
X179250Y210791D01*
Y210752D01*
X179230Y210553D01*
X179170Y210394D01*
X179111Y210314D01*
X179091Y210274D01*
X178932Y210155D01*
X178773Y210095D01*
X178653Y210075D01*
X178614D01*
X178594D01*
X166502D01*
X166263Y210095D01*
X166084Y210155D01*
X165965Y210235D01*
X165925Y210254D01*
X165806Y210414D01*
X165746Y210533D01*
X165726Y210613D01*
Y210632D01*
X165746Y210752D01*
X165766Y210851D01*
X165786Y210931D01*
X165806Y210951D01*
X165865Y211050D01*
X165945Y211149D01*
X166005Y211209D01*
X166024Y211229D01*
X168729Y213914D01*
X168888Y214033D01*
X169047Y214093D01*
X169147Y214113D01*
X169167D01*
X169187D01*
X169286Y214093D01*
D02*
G37*
G36*
X118685Y129960D02*
X119062Y129881D01*
X119381Y129741D01*
X119659Y129602D01*
X119898Y129463D01*
X120057Y129324D01*
X120156Y129244D01*
X120196Y129205D01*
X120455Y128886D01*
X120654Y128568D01*
X120773Y128250D01*
X120872Y127951D01*
X120932Y127693D01*
X120952Y127494D01*
X120972Y127415D01*
Y123954D01*
X120952Y123835D01*
X120932Y123735D01*
X120852Y123596D01*
X120793Y123497D01*
X120753Y123477D01*
X120594Y123377D01*
X120455Y123318D01*
X120355Y123298D01*
X120316D01*
X120136Y123337D01*
X119997Y123397D01*
X119898Y123457D01*
X119858Y123497D01*
X119778Y123576D01*
X119739Y123656D01*
X119659Y123795D01*
X119639Y123914D01*
Y127335D01*
X119619Y127514D01*
X119600Y127673D01*
X119580Y127812D01*
X119560Y127832D01*
Y127852D01*
X119460Y128011D01*
X119361Y128150D01*
X119281Y128250D01*
X119261Y128290D01*
X119102Y128409D01*
X118943Y128508D01*
X118784Y128568D01*
X118625Y128628D01*
X118506Y128648D01*
X118406Y128667D01*
X118327D01*
X118307D01*
X110232D01*
X110033Y128648D01*
X109874Y128628D01*
X109755Y128608D01*
X109735Y128588D01*
X109715D01*
X109536Y128508D01*
X109397Y128409D01*
X109317Y128329D01*
X109277Y128290D01*
X109138Y128131D01*
X109039Y127971D01*
X108979Y127812D01*
X108919Y127653D01*
X108900Y127534D01*
X108880Y127434D01*
Y123974D01*
X108860Y123855D01*
X108840Y123755D01*
X108760Y123596D01*
X108701Y123497D01*
X108661Y123477D01*
X108502Y123377D01*
X108363Y123318D01*
X108263Y123298D01*
X108223D01*
X108044Y123337D01*
X107905Y123397D01*
X107806Y123457D01*
X107766Y123497D01*
X107686Y123576D01*
X107647Y123636D01*
X107567Y123795D01*
X107547Y123914D01*
Y127315D01*
X107587Y127713D01*
X107667Y128091D01*
X107806Y128409D01*
X107945Y128687D01*
X108084Y128926D01*
X108223Y129085D01*
X108303Y129185D01*
X108343Y129224D01*
X108641Y129483D01*
X108959Y129682D01*
X109277Y129801D01*
X109576Y129901D01*
X109834Y129960D01*
X110053Y129980D01*
X110133Y130000D01*
X110173D01*
X110212D01*
X110232D01*
X118287D01*
X118685Y129960D01*
D02*
G37*
G36*
X120614Y120653D02*
X120753Y120573D01*
X120833Y120454D01*
X120912Y120314D01*
X120952Y120195D01*
X120972Y120076D01*
Y114587D01*
X120952Y114467D01*
X120932Y114368D01*
X120852Y114229D01*
X120793Y114129D01*
X120753Y114109D01*
X120594Y114010D01*
X120455Y113950D01*
X120355Y113930D01*
X120316D01*
X120136Y113970D01*
X119997Y114030D01*
X119898Y114089D01*
X119858Y114129D01*
X119778Y114209D01*
X119739Y114268D01*
X119659Y114427D01*
X119639Y114547D01*
Y118763D01*
X112738Y114427D01*
X112420Y114288D01*
X112121Y114169D01*
X111843Y114089D01*
X111604Y114050D01*
X111386Y114010D01*
X111227Y113990D01*
X111127D01*
X111087D01*
X110829Y114010D01*
X110570Y114030D01*
X110093Y114169D01*
X109655Y114328D01*
X109297Y114527D01*
X108999Y114746D01*
X108880Y114825D01*
X108780Y114905D01*
X108701Y114984D01*
X108641Y115044D01*
X108621Y115064D01*
X108601Y115084D01*
X108422Y115303D01*
X108243Y115521D01*
X108104Y115740D01*
X107985Y115959D01*
X107806Y116416D01*
X107686Y116834D01*
X107607Y117192D01*
X107587Y117351D01*
X107567Y117490D01*
X107547Y117590D01*
Y117749D01*
X107567Y118007D01*
X107607Y118266D01*
X107647Y118365D01*
X107667Y118445D01*
X107686Y118485D01*
Y118505D01*
X107786Y118783D01*
X107905Y119042D01*
X107945Y119141D01*
X107985Y119221D01*
X108005Y119260D01*
X108025Y119280D01*
X108203Y119559D01*
X108402Y119817D01*
X108601Y120016D01*
X108780Y120195D01*
X108939Y120354D01*
X109079Y120454D01*
X109158Y120513D01*
X109198Y120533D01*
X109357Y120593D01*
X109476Y120633D01*
X109556Y120653D01*
X109576D01*
X109675Y120633D01*
X109775Y120613D01*
X109914Y120533D01*
X110013Y120473D01*
X110053Y120434D01*
X110153Y120275D01*
X110212Y120116D01*
X110232Y119996D01*
Y119957D01*
X110173Y119658D01*
X110093Y119539D01*
X110013Y119459D01*
X109954Y119419D01*
X109934Y119400D01*
X109616Y119161D01*
X109476Y119022D01*
X109357Y118902D01*
X109277Y118783D01*
X109218Y118703D01*
X109178Y118644D01*
X109158Y118624D01*
X109059Y118445D01*
X108999Y118266D01*
X108939Y118107D01*
X108919Y117948D01*
X108900Y117828D01*
X108880Y117729D01*
Y117649D01*
X108900Y117291D01*
X108939Y117132D01*
X108959Y117013D01*
X108999Y116894D01*
X109039Y116814D01*
X109059Y116755D01*
Y116735D01*
X109218Y116436D01*
X109357Y116217D01*
X109437Y116118D01*
X109476Y116058D01*
X109516Y116019D01*
X109536Y115999D01*
X109775Y115780D01*
X110033Y115601D01*
X110292Y115482D01*
X110511Y115402D01*
X110729Y115362D01*
X110888Y115323D01*
X110988D01*
X111008D01*
X111028D01*
X111207Y115342D01*
X111386Y115362D01*
X111565Y115402D01*
X111704Y115442D01*
X111843Y115501D01*
X111943Y115541D01*
X112022Y115561D01*
X112042Y115581D01*
X119938Y120533D01*
X120136Y120633D01*
X120296Y120672D01*
X120395Y120692D01*
X120435D01*
X120614Y120653D01*
D02*
G37*
G36*
X179943Y261230D02*
X180043Y261210D01*
X180162Y261171D01*
X180301Y261091D01*
X180401Y260972D01*
X180480Y260812D01*
X180500Y260594D01*
Y248502D01*
Y248482D01*
Y248462D01*
X180480Y248343D01*
X180420Y248183D01*
X180301Y248004D01*
X180261Y247985D01*
X180162Y247905D01*
X180023Y247845D01*
X179844Y247826D01*
X179804D01*
X179685Y247845D01*
X179545Y247905D01*
X179386Y248004D01*
X179366D01*
X179347Y248024D01*
X179267Y248124D01*
X179207Y248283D01*
X179167Y248382D01*
Y248502D01*
Y259918D01*
X174414D01*
X174295Y259937D01*
X174156Y260017D01*
X174076Y260057D01*
X173997Y260136D01*
X173957Y260176D01*
X173897Y260275D01*
X173838Y260415D01*
X173798Y260594D01*
Y260634D01*
X173818Y260733D01*
X173877Y260872D01*
X173977Y261031D01*
X173997Y261071D01*
X174096Y261131D01*
X174235Y261210D01*
X174335Y261230D01*
X174454Y261250D01*
X179864D01*
X179943Y261230D01*
D02*
G37*
G36*
X170695D02*
X170814Y261190D01*
X170954Y261111D01*
X171073Y261031D01*
X171153Y260892D01*
X171192Y260713D01*
Y260673D01*
X171173Y260574D01*
X171133Y260415D01*
X171033Y260216D01*
X166081Y252320D01*
X166061Y252300D01*
X166041Y252221D01*
X166001Y252121D01*
X165942Y251982D01*
X165902Y251843D01*
X165862Y251664D01*
X165842Y251485D01*
X165823Y251306D01*
Y251286D01*
Y251266D01*
Y251167D01*
X165862Y251008D01*
X165902Y250789D01*
X165982Y250570D01*
X166101Y250312D01*
X166280Y250053D01*
X166499Y249814D01*
X166519Y249794D01*
X166558Y249755D01*
X166618Y249715D01*
X166717Y249635D01*
X166936Y249496D01*
X167235Y249337D01*
X167255D01*
X167314Y249317D01*
X167394Y249277D01*
X167513Y249238D01*
X167632Y249218D01*
X167792Y249178D01*
X168149Y249158D01*
X168229D01*
X168328Y249178D01*
X168448Y249198D01*
X168607Y249218D01*
X168766Y249277D01*
X168945Y249337D01*
X169124Y249436D01*
X169144Y249456D01*
X169203Y249496D01*
X169283Y249556D01*
X169402Y249635D01*
X169522Y249755D01*
X169661Y249894D01*
X169900Y250212D01*
X169919Y250232D01*
X169959Y250292D01*
X170039Y250371D01*
X170158Y250451D01*
X170457Y250510D01*
X170496D01*
X170616Y250490D01*
X170775Y250431D01*
X170934Y250331D01*
X170974Y250292D01*
X171033Y250192D01*
X171113Y250053D01*
X171133Y249953D01*
X171153Y249854D01*
Y249834D01*
X171133Y249755D01*
X171093Y249635D01*
X171033Y249476D01*
X171013Y249436D01*
X170954Y249357D01*
X170854Y249218D01*
X170695Y249059D01*
X170516Y248880D01*
X170317Y248681D01*
X170059Y248482D01*
X169780Y248303D01*
X169760Y248283D01*
X169721Y248263D01*
X169641Y248223D01*
X169542Y248183D01*
X169283Y248064D01*
X169005Y247965D01*
X168985D01*
X168945Y247945D01*
X168865Y247925D01*
X168766Y247885D01*
X168507Y247845D01*
X168249Y247826D01*
X168090D01*
X167990Y247845D01*
X167851Y247865D01*
X167692Y247885D01*
X167334Y247965D01*
X166916Y248084D01*
X166459Y248263D01*
X166240Y248382D01*
X166021Y248522D01*
X165803Y248701D01*
X165584Y248880D01*
X165564Y248899D01*
X165544Y248919D01*
X165484Y248979D01*
X165405Y249059D01*
X165325Y249158D01*
X165246Y249277D01*
X165027Y249576D01*
X164828Y249934D01*
X164669Y250371D01*
X164530Y250849D01*
X164510Y251107D01*
X164490Y251366D01*
Y251405D01*
Y251505D01*
X164510Y251664D01*
X164550Y251883D01*
X164590Y252121D01*
X164669Y252400D01*
X164788Y252698D01*
X164928Y253016D01*
X169263Y259918D01*
X165047D01*
X164928Y259937D01*
X164769Y260017D01*
X164709Y260057D01*
X164629Y260136D01*
X164590Y260176D01*
X164530Y260275D01*
X164470Y260415D01*
X164430Y260594D01*
Y260634D01*
X164450Y260733D01*
X164510Y260872D01*
X164609Y261031D01*
X164629Y261071D01*
X164729Y261131D01*
X164868Y261210D01*
X164967Y261230D01*
X165087Y261250D01*
X170576D01*
X170695Y261230D01*
D02*
G37*
D10*
X103371Y97351D02*
G03*
X103371Y97351I-5000J0D01*
G01*
X126800Y166000D02*
G03*
X126800Y166000I-5000J0D01*
G01*
X212604Y73300D02*
X229074Y87120D01*
X203605Y84024D02*
X220075Y97844D01*
X229074Y87120D01*
X203605Y84024D02*
X212604Y73300D01*
X237192Y80967D02*
X248762Y67178D01*
X263238Y102822D02*
X274808Y89033D01*
X248762Y67178D02*
X274808Y89033D01*
X237192Y80967D02*
X263238Y102822D01*
X48050Y99044D02*
X70993Y66278D01*
X89007Y127722D02*
X111950Y94956D01*
X48050Y99044D02*
X89007Y127722D01*
X70993Y66278D02*
X111950Y94956D01*
X310000Y180000D02*
Y214000D01*
X292000Y180000D02*
Y214000D01*
Y180000D02*
X310000D01*
X292000Y214000D02*
X310000Y214000D01*
X183000Y150000D02*
Y184000D01*
X165000Y150000D02*
Y184000D01*
Y150000D02*
X183000D01*
X165000Y184000D02*
X183000D01*
X112050Y175750D02*
X162050D01*
X112050Y135750D02*
X162050D01*
X112050D02*
Y175750D01*
X162050Y135750D02*
Y175750D01*
X61053Y108176D02*
X71803Y89556D01*
X48929Y101176D02*
X59679Y82556D01*
X48929Y101176D02*
X61053Y108176D01*
X59679Y82556D02*
X71803Y89556D01*
X294250Y261000D02*
X315750Y261000D01*
X294250Y247000D02*
X315750D01*
X294250D02*
X294250Y261000D01*
X315750Y247000D02*
X315750Y261000D01*
D15*
X194500Y197000D02*
Y213000D01*
X185500Y197000D02*
Y213000D01*
X154000Y267500D02*
X170000D01*
X154000Y276500D02*
X170000D01*
M02*
