G04*
G04 #@! TF.GenerationSoftware,Altium Limited,Altium Designer,25.1.2 (22)*
G04*
G04 Layer_Color=65535*
%FSLAX44Y44*%
%MOMM*%
G71*
G04*
G04 #@! TF.SameCoordinates,7166223C-B6ED-409E-8759-D5DD53971EAE*
G04*
G04*
G04 #@! TF.FilePolarity,Positive*
G04*
G01*
G75*
%ADD10C,0.2500*%
%ADD11C,0.2540*%
%ADD12C,0.2000*%
%ADD13C,0.6000*%
%ADD14C,0.1270*%
%ADD15C,0.1000*%
D10*
X240118Y42647D02*
G03*
X240118Y42647I-1250J0D01*
G01*
X54250Y147000D02*
G03*
X54250Y147000I-1250J0D01*
G01*
X215750Y220500D02*
G03*
X215750Y220500I-1250J0D01*
G01*
D11*
X134250Y29000D02*
G03*
X134250Y29000I-1250J0D01*
G01*
X159650Y93000D02*
G03*
X159650Y93000I-1250J0D01*
G01*
X193182Y80500D02*
X207323Y63647D01*
X245051Y95304D01*
X230910Y112157D02*
X245051Y95304D01*
X193182Y80500D02*
X230910Y112157D01*
X61340Y71680D02*
X80392Y82680D01*
X55767Y125331D02*
X80392Y82680D01*
X36715Y114331D02*
X55767Y125331D01*
X36715Y114331D02*
X61340Y71680D01*
X326000Y243000D02*
X326000Y265000D01*
X276750D02*
X326000D01*
X276750Y243000D02*
X276750Y265000D01*
X276750Y243000D02*
X326000Y243000D01*
D12*
X336000Y129900D02*
G03*
X336000Y129900I-1000J0D01*
G01*
X179127Y337250D02*
G03*
X179127Y337250I-1000J0D01*
G01*
X211081Y257840D02*
G03*
X211081Y257840I-1000J0D01*
G01*
X221226Y72227D02*
X278355Y120164D01*
X314302Y77324D01*
X257173Y29388D02*
X314302Y77324D01*
X221226Y72227D02*
X257173Y29388D01*
X212161Y90551D02*
X220518Y80593D01*
X240455Y91448D02*
X245051Y95304D01*
X239750Y91509D02*
X240455Y91448D01*
X225930Y107979D02*
X239750Y91509D01*
X237220Y108389D02*
X246862Y96898D01*
X257138Y125102D02*
X266779Y113611D01*
X237220Y108389D02*
X257138Y125102D01*
X246862Y96898D02*
X266779Y113611D01*
X19000Y152500D02*
X74924D01*
X74924Y227076D01*
X19000Y227076D02*
X74924Y227076D01*
X19000Y152500D02*
Y227076D01*
X171100Y54620D02*
X171100Y39380D01*
X150700Y59700D02*
X166020Y59700D01*
X171100Y54620D01*
X166020Y34300D02*
X171100Y39380D01*
X150780Y34300D02*
X166020D01*
X125380D02*
X140620Y34300D01*
X145700Y39380D02*
X150780Y34300D01*
X145700Y54620D02*
X150780Y59700D01*
X145700Y54620D02*
X145700Y39380D01*
X120300Y39380D02*
X125380Y34300D01*
X120300Y54620D02*
X120300Y39380D01*
X120300Y54620D02*
X125380Y59700D01*
X125300Y59700D02*
X140620D01*
X145700Y54620D01*
X140620Y34300D02*
X145700Y39380D01*
X120300Y67380D02*
Y82620D01*
X125380Y62300D02*
X140700D01*
X120300Y67380D02*
X125380Y62300D01*
X120300Y82620D02*
X125380Y87700D01*
X140620Y87700D01*
X150780Y87700D02*
X166020D01*
X140620Y87700D02*
X145700Y82620D01*
X140620Y62300D02*
X145700Y67380D01*
Y82620D01*
X166020Y87700D02*
X171100Y82620D01*
Y67380D02*
Y82620D01*
X166020Y62300D02*
X171100Y67380D01*
X150780Y62300D02*
X166100D01*
X145700Y67380D02*
X150780Y62300D01*
X145700Y82620D02*
X150780Y87700D01*
X115000Y134000D02*
Y148000D01*
X143000Y134000D02*
Y148000D01*
X115000D02*
X143000D01*
X115000Y134000D02*
X143000D01*
X129531Y166521D02*
Y183479D01*
X102469Y166521D02*
Y183479D01*
X244000Y197000D02*
Y225000D01*
X230000Y197000D02*
Y225000D01*
X244000D01*
X230000Y197000D02*
X244000D01*
X230500Y180000D02*
X256500D01*
X230500Y195000D02*
X256500D01*
Y180000D02*
Y195000D01*
X230500Y180000D02*
Y195000D01*
X149000Y263000D02*
X177000D01*
X149000Y249000D02*
X177000D01*
X149000D02*
Y263000D01*
X177000Y249000D02*
Y263000D01*
X149000Y247000D02*
X177000D01*
X149000Y233000D02*
X177000D01*
X149000D02*
Y247000D01*
X177000Y233000D02*
Y247000D01*
X152500Y152500D02*
Y207500D01*
X207500Y152500D02*
Y207500D01*
X152500Y152500D02*
X207500D01*
X152500Y207500D02*
X207500D01*
X54737Y92116D02*
X65995Y98616D01*
X55767Y125331D02*
X58767Y120135D01*
X58584Y119452D02*
X58767Y120135D01*
X39965Y108702D02*
X58584Y119452D01*
X70995Y134008D02*
X83995Y111492D01*
X58005Y126508D02*
X71005Y103992D01*
X58005Y126508D02*
X70995Y134008D01*
X71005Y103992D02*
X83995Y111492D01*
X305000Y247500D02*
X305000Y260500D01*
X276750Y265000D02*
X282750Y265000D01*
X283250Y264500D01*
X283250Y243000D01*
X287000Y267500D02*
X313000D01*
X287000Y282500D02*
X313000D01*
Y267500D02*
Y282500D01*
X287000Y267500D02*
Y282500D01*
X119000Y233000D02*
X147000D01*
X119000Y247000D02*
X147000D01*
Y233000D02*
Y247000D01*
X119000Y233000D02*
Y247000D01*
X120500Y249500D02*
X146500D01*
X120500Y264500D02*
X146500D01*
Y249500D02*
Y264500D01*
X120500Y249500D02*
Y264500D01*
X206062Y267376D02*
X220062Y291624D01*
X193938Y274376D02*
X207938Y298624D01*
X220062Y291624D01*
X193938Y274376D02*
X206062Y267376D01*
X253062Y240376D02*
X267062Y264624D01*
X240938Y247376D02*
X254938Y271624D01*
X267062Y264624D01*
X240938Y247376D02*
X253062Y240376D01*
X165233Y299935D02*
X187750Y312935D01*
X157733Y312925D02*
X180250Y325925D01*
X187750Y312935D01*
X157733Y312925D02*
X165233Y299935D01*
X187062Y344624D02*
X201062Y320376D01*
X174938Y337624D02*
X188938Y313376D01*
X174938Y337624D02*
X187062Y344624D01*
X188938Y313376D02*
X201062Y320376D01*
X166651Y105800D02*
X186450Y125599D01*
X176550Y95901D02*
X196349Y115700D01*
X166651Y105800D02*
X176550Y95901D01*
X186450Y125599D02*
X196349Y115700D01*
X79250Y209750D02*
Y216415D01*
X82582Y219747D01*
X85914Y216415D01*
Y209750D01*
Y214748D01*
X79250D01*
X81250Y160747D02*
Y150750D01*
X86248D01*
X87914Y152416D01*
Y154082D01*
X86248Y155748D01*
X81250D01*
X86248D01*
X87914Y157415D01*
Y159081D01*
X86248Y160747D01*
X81250D01*
X241000Y34332D02*
X247665D01*
X244332Y37664D02*
Y31000D01*
X309000Y92000D02*
X315665D01*
X103000Y58332D02*
X109664D01*
X88000D02*
X94664D01*
X91332Y61665D02*
Y55000D01*
X109664Y80331D02*
X107998Y81997D01*
X104666D01*
X103000Y80331D01*
Y73666D01*
X104666Y72000D01*
X107998D01*
X109664Y73666D01*
X88000Y81997D02*
Y72000D01*
X92998D01*
X94664Y73666D01*
Y80331D01*
X92998Y81997D01*
X88000D01*
X261268Y307732D02*
X264600Y313504D01*
X278382Y298398D02*
X281714Y304170D01*
X277162Y302950D02*
X282934Y299618D01*
X242386Y327669D02*
X240110Y327059D01*
X238444Y324173D01*
X239053Y321897D01*
X240496Y321064D01*
X242772Y321674D01*
X244438Y324560D01*
X246714Y325170D01*
X248157Y324337D01*
X248767Y322061D01*
X247101Y319175D01*
X244825Y318565D01*
X143671Y31498D02*
X150336Y21502D01*
Y31498D02*
X143671Y21502D01*
X153668D02*
Y31498D01*
X158666D01*
X160332Y29832D01*
Y26500D01*
X158666Y24834D01*
X153668D01*
X170329Y31498D02*
X166997Y29832D01*
X163664Y26500D01*
Y23168D01*
X165331Y21502D01*
X168663D01*
X170329Y23168D01*
Y24834D01*
X168663Y26500D01*
X163664D01*
X90418Y249335D02*
X88752Y247669D01*
Y244337D01*
X90418Y242671D01*
X92084D01*
X93750Y244337D01*
Y247669D01*
X95416Y249335D01*
X97082D01*
X98748Y247669D01*
Y244337D01*
X97082Y242671D01*
X88752Y252668D02*
X98748D01*
Y257666D01*
X97082Y259332D01*
X95416D01*
X93750Y257666D01*
Y252668D01*
Y257666D01*
X92084Y259332D01*
X90418D01*
X88752Y257666D01*
Y252668D01*
X98748Y269329D02*
Y262665D01*
X92084Y269329D01*
X90418D01*
X88752Y267663D01*
Y264331D01*
X90418Y262665D01*
X242399Y294160D02*
X248170Y290828D01*
X247337Y289385D01*
X238234Y286946D01*
X237400Y285503D01*
X243172Y282171D01*
X252663Y278615D02*
X255995Y284387D01*
X255385Y286663D01*
X252499Y288329D01*
X250223Y287719D01*
X246891Y281947D01*
X247501Y279671D01*
X250387Y278005D01*
X250610Y281724D02*
X251829Y277172D01*
X250387Y278005D02*
X252663Y278615D01*
X254715Y275506D02*
X257601Y273840D01*
X256158Y274673D01*
X261157Y283330D01*
X258881Y282721D01*
X20671Y149498D02*
X27336Y139502D01*
Y149498D02*
X20671Y139502D01*
X30668D02*
Y149498D01*
X35666D01*
X37332Y147832D01*
Y144500D01*
X35666Y142834D01*
X30668D01*
X45663Y139502D02*
Y149498D01*
X40665Y144500D01*
X47329D01*
X119921Y101248D02*
X126586Y91252D01*
Y101248D02*
X119921Y91252D01*
X129918D02*
Y101248D01*
X134916D01*
X136582Y99582D01*
Y96250D01*
X134916Y94584D01*
X129918D01*
X139915Y99582D02*
X141581Y101248D01*
X144913D01*
X146579Y99582D01*
Y97916D01*
X144913Y96250D01*
X143247D01*
X144913D01*
X146579Y94584D01*
Y92918D01*
X144913Y91252D01*
X141581D01*
X139915Y92918D01*
X294332Y121147D02*
X290958Y109616D01*
X298616Y116042D02*
X286674Y114721D01*
X293100Y107063D02*
X300758Y113489D01*
X303971Y109660D01*
X303766Y107313D01*
X301213Y105171D01*
X298866Y105376D01*
X295653Y109205D01*
X299526Y99405D02*
X301668Y96853D01*
X300597Y98129D01*
X308255Y104555D01*
X305907Y104760D01*
X73334Y299886D02*
X71058Y300496D01*
X68172Y298829D01*
X67562Y296553D01*
X68395Y295111D01*
X70671Y294501D01*
X73557Y296167D01*
X75833Y295557D01*
X76666Y294114D01*
X76056Y291838D01*
X73170Y290172D01*
X70894Y290782D01*
X80385Y294337D02*
X83271Y296003D01*
X81828Y295170D01*
X76830Y303828D01*
X76220Y301552D01*
X175677Y289423D02*
X170679Y298081D01*
X175008Y300580D01*
X177284Y299970D01*
X178950Y297084D01*
X178340Y294808D01*
X174011Y292309D01*
X176897Y293975D02*
X181449Y292756D01*
X184335Y294422D02*
X187221Y296088D01*
X185778Y295255D01*
X180779Y303912D01*
X180170Y301636D01*
X195878Y301086D02*
X190880Y309744D01*
X189050Y302916D01*
X194822Y306248D01*
X230504Y166002D02*
Y175998D01*
X235502D01*
X237169Y174332D01*
Y171000D01*
X235502Y169334D01*
X230504D01*
X233836D02*
X237169Y166002D01*
X240501D02*
X243833D01*
X242167D01*
Y175998D01*
X240501Y174332D01*
X248832D02*
X250498Y175998D01*
X253830D01*
X255496Y174332D01*
Y172666D01*
X253830Y171000D01*
X252164D01*
X253830D01*
X255496Y169334D01*
Y167668D01*
X253830Y166002D01*
X250498D01*
X248832Y167668D01*
X79677Y92423D02*
X74679Y101081D01*
X79008Y103580D01*
X81284Y102970D01*
X82950Y100084D01*
X82340Y97808D01*
X78011Y95309D01*
X80897Y96975D02*
X85449Y95756D01*
X88335Y97422D02*
X91221Y99088D01*
X89778Y98255D01*
X84779Y106912D01*
X84170Y104636D01*
X101321Y104919D02*
X95549Y101587D01*
X97989Y110691D01*
X97156Y112134D01*
X94880Y112744D01*
X91994Y111077D01*
X91384Y108801D01*
X285502Y286001D02*
Y291999D01*
X288501D01*
X289501Y290999D01*
Y289000D01*
X288501Y288000D01*
X285502D01*
X287502D02*
X289501Y286001D01*
X291500D02*
X293500D01*
X292500D01*
Y291999D01*
X291500Y290999D01*
X296499Y286001D02*
X298498D01*
X297498D01*
Y291999D01*
X296499Y290999D01*
X109504Y267002D02*
Y276998D01*
X114502D01*
X116169Y275332D01*
Y272000D01*
X114502Y270334D01*
X109504D01*
X112836D02*
X116169Y267002D01*
X119501D02*
X122833D01*
X121167D01*
Y276998D01*
X119501Y275332D01*
X127831D02*
X129498Y276998D01*
X132830D01*
X134496Y275332D01*
Y268668D01*
X132830Y267002D01*
X129498D01*
X127831Y268668D01*
Y275332D01*
X229669Y120002D02*
Y129998D01*
X234668D01*
X236334Y128332D01*
Y125000D01*
X234668Y123334D01*
X229669D01*
X233002D02*
X236334Y120002D01*
X239666Y121668D02*
X241332Y120002D01*
X244664D01*
X246331Y121668D01*
Y128332D01*
X244664Y129998D01*
X241332D01*
X239666Y128332D01*
Y126666D01*
X241332Y125000D01*
X246331D01*
X153669Y292998D02*
Y283002D01*
X160334D01*
X170331D02*
X163666D01*
X170331Y289666D01*
Y291332D01*
X168664Y292998D01*
X165332D01*
X163666Y291332D01*
X28958Y127664D02*
X33956Y119007D01*
X31457Y123336D01*
X37228Y126668D01*
X34729Y130997D01*
X39727Y122339D01*
X37615Y132663D02*
X42613Y124005D01*
X48385Y127337D01*
X47105Y136218D02*
X47715Y138494D01*
X50601Y140160D01*
X52877Y139550D01*
X53710Y138107D01*
X53100Y135831D01*
X51657Y134998D01*
X53100Y135831D01*
X55376Y135222D01*
X56209Y133779D01*
X55600Y131503D01*
X52714Y129837D01*
X50438Y130446D01*
X268003Y274999D02*
Y269001D01*
Y272000D01*
X272001D01*
Y274999D01*
Y269001D01*
X274001Y274999D02*
Y269001D01*
X277999D01*
X283997D02*
X279999D01*
X283997Y273000D01*
Y273999D01*
X282998Y274999D01*
X280998D01*
X279999Y273999D01*
X185353Y94082D02*
X191779Y86424D01*
X188566Y90253D01*
X193671Y94537D01*
X190458Y98366D01*
X196884Y90708D01*
X193011Y100508D02*
X199437Y92850D01*
X204542Y97134D01*
X207095Y99276D02*
X209647Y101418D01*
X208371Y100347D01*
X201945Y108005D01*
X201740Y105658D01*
X217671Y237998D02*
Y228002D01*
X222669D01*
X224335Y229668D01*
Y236332D01*
X222669Y237998D01*
X217671D01*
X227668D02*
Y228002D01*
X232666D01*
X234332Y229668D01*
Y236332D01*
X232666Y237998D01*
X227668D01*
X244329Y228002D02*
X237665D01*
X244329Y234666D01*
Y236332D01*
X242663Y237998D01*
X239331D01*
X237665Y236332D01*
X318335Y120998D02*
Y111002D01*
X323334D01*
X325000Y112668D01*
Y119332D01*
X323334Y120998D01*
X318335D01*
X328332Y111002D02*
X331665D01*
X329998D01*
Y120998D01*
X328332Y119332D01*
X207335Y335332D02*
X205669Y336998D01*
X202337D01*
X200671Y335332D01*
Y328668D01*
X202337Y327002D01*
X205669D01*
X207335Y328668D01*
X217332Y327002D02*
X210668D01*
X217332Y333666D01*
Y335332D01*
X215666Y336998D01*
X212334D01*
X210668Y335332D01*
X220665D02*
X222331Y336998D01*
X225663D01*
X227329Y335332D01*
Y333666D01*
X225663Y332000D01*
X223997D01*
X225663D01*
X227329Y330334D01*
Y328668D01*
X225663Y327002D01*
X222331D01*
X220665Y328668D01*
X262769Y250402D02*
X261403Y250037D01*
X260404Y248305D01*
X260770Y246940D01*
X264233Y244940D01*
X265598Y245306D01*
X266598Y247038D01*
X266232Y248403D01*
X270097Y253098D02*
X268097Y249635D01*
X266634Y255097D01*
X265768Y255597D01*
X264402Y255231D01*
X263403Y253500D01*
X263769Y252134D01*
X271096Y254829D02*
X272096Y256561D01*
X271596Y255695D01*
X266402Y258694D01*
X266768Y257328D01*
X219616Y305802D02*
X219006Y308078D01*
X216120Y309744D01*
X213844Y309134D01*
X210512Y303362D01*
X211122Y301086D01*
X214008Y299420D01*
X216284Y300030D01*
X218336Y296921D02*
X221222Y295255D01*
X219779Y296088D01*
X224778Y304745D01*
X222502Y304135D01*
X226384Y294198D02*
X226994Y291922D01*
X229880Y290256D01*
X232156Y290866D01*
X235488Y296638D01*
X234878Y298914D01*
X231992Y300580D01*
X229716Y299970D01*
X228883Y298527D01*
X229493Y296251D01*
X233822Y293752D01*
X86918Y235082D02*
X85252Y236748D01*
X81920D01*
X80254Y235082D01*
Y228418D01*
X81920Y226752D01*
X85252D01*
X86918Y228418D01*
X90251Y226752D02*
X93583D01*
X91917D01*
Y236748D01*
X90251Y235082D01*
X105246Y236748D02*
X101914Y235082D01*
X98581Y231750D01*
Y228418D01*
X100248Y226752D01*
X103580D01*
X105246Y228418D01*
Y230084D01*
X103580Y231750D01*
X98581D01*
X187169Y242332D02*
X185502Y243998D01*
X182170D01*
X180504Y242332D01*
Y235668D01*
X182170Y234002D01*
X185502D01*
X187169Y235668D01*
X190501Y234002D02*
X193833D01*
X192167D01*
Y243998D01*
X190501Y242332D01*
X205496Y243998D02*
X198831D01*
Y239000D01*
X202164Y240666D01*
X203830D01*
X205496Y239000D01*
Y235668D01*
X203830Y234002D01*
X200498D01*
X198831Y235668D01*
X124169Y127832D02*
X122502Y129498D01*
X119170D01*
X117504Y127832D01*
Y121168D01*
X119170Y119502D01*
X122502D01*
X124169Y121168D01*
X127501Y119502D02*
X130833D01*
X129167D01*
Y129498D01*
X127501Y127832D01*
X140830Y119502D02*
Y129498D01*
X135831Y124500D01*
X142496D01*
X187169Y259332D02*
X185502Y260998D01*
X182170D01*
X180504Y259332D01*
Y252668D01*
X182170Y251002D01*
X185502D01*
X187169Y252668D01*
X190501Y251002D02*
X193833D01*
X192167D01*
Y260998D01*
X190501Y259332D01*
X205496Y251002D02*
X198831D01*
X205496Y257666D01*
Y259332D01*
X203830Y260998D01*
X200498D01*
X198831Y259332D01*
X255832Y218165D02*
X257498Y219831D01*
Y223164D01*
X255832Y224830D01*
X249168D01*
X247502Y223164D01*
Y219831D01*
X249168Y218165D01*
X247502Y214833D02*
Y211501D01*
Y213167D01*
X257498D01*
X255832Y214833D01*
X247502Y206502D02*
Y203170D01*
Y204836D01*
X257498D01*
X255832Y206502D01*
X153363Y111326D02*
X151007D01*
X148651Y108970D01*
Y106613D01*
X153363Y101901D01*
X155720D01*
X158076Y104257D01*
Y106613D01*
X161610Y107792D02*
X163967Y110148D01*
X162789Y108970D01*
X155720Y116039D01*
Y113682D01*
X161610Y119573D02*
Y121929D01*
X163967Y124285D01*
X166323Y124285D01*
X171035Y119573D01*
X171035Y117217D01*
X168679Y114860D01*
X166323D01*
X161610Y119573D01*
X113334Y212332D02*
X111668Y213998D01*
X108336D01*
X106669Y212332D01*
Y205668D01*
X108336Y204002D01*
X111668D01*
X113334Y205668D01*
X116666D02*
X118332Y204002D01*
X121664D01*
X123331Y205668D01*
Y212332D01*
X121664Y213998D01*
X118332D01*
X116666Y212332D01*
Y210666D01*
X118332Y209000D01*
X123331D01*
D13*
X200500Y197500D02*
G03*
X200500Y197500I-3000J0D01*
G01*
D14*
X265000Y240900D02*
X265000Y123900D01*
X340600Y123900D01*
X340600Y240900D01*
X265000Y240900D02*
X340600Y240900D01*
X141231Y336155D02*
X158731Y305844D01*
X89269Y306155D02*
X141231Y336155D01*
X89269Y306155D02*
X106769Y275845D01*
X158731Y305844D01*
X133240Y319995D02*
X140740Y307005D01*
X107260Y304995D02*
X133240Y319995D01*
X107260Y304995D02*
X114760Y292005D01*
X140740Y307005D01*
X222290Y258585D02*
X223675Y257785D01*
X234790Y280236D02*
X236175Y279436D01*
D15*
X149000Y264500D02*
Y279500D01*
Y264500D02*
X175000D01*
Y279500D01*
X149000D02*
X175000D01*
M02*
