G04*
G04 #@! TF.GenerationSoftware,Altium Limited,Altium Designer,25.1.2 (22)*
G04*
G04 Layer_Physical_Order=2*
G04 Layer_Color=36540*
%FSLAX44Y44*%
%MOMM*%
G71*
G04*
G04 #@! TF.SameCoordinates,7166223C-B6ED-409E-8759-D5DD53971EAE*
G04*
G04*
G04 #@! TF.FilePolarity,Positive*
G04*
G01*
G75*
%ADD57C,1.6000*%
%ADD58C,1.4000*%
%ADD68C,1.3580*%
%ADD69C,2.0000*%
%ADD72C,0.8000*%
%ADD73C,0.6000*%
G36*
X197672Y347984D02*
X208542Y346553D01*
X219294Y344414D01*
X229884Y341577D01*
X240266Y338052D01*
X250395Y333857D01*
X260228Y329008D01*
X269723Y323526D01*
X278839Y317435D01*
X287537Y310761D01*
X295780Y303532D01*
X303532Y295780D01*
X310761Y287537D01*
X317435Y278839D01*
X323526Y269723D01*
X329008Y260228D01*
X333857Y250395D01*
X338052Y240266D01*
X341577Y229885D01*
X344414Y219294D01*
X346553Y208541D01*
X347984Y197672D01*
X348701Y186732D01*
Y175768D01*
X347984Y164828D01*
X346553Y153958D01*
X344414Y143205D01*
X341577Y132615D01*
X338052Y122234D01*
X333857Y112105D01*
X329008Y102272D01*
X323526Y92777D01*
X317435Y83661D01*
X310761Y74963D01*
X303532Y66720D01*
X295780Y58968D01*
X287537Y51739D01*
X278839Y45065D01*
X269723Y38974D01*
X260228Y33492D01*
X250395Y28643D01*
X240266Y24448D01*
X229885Y20923D01*
X219294Y18086D01*
X208541Y15947D01*
X197672Y14516D01*
X186732Y13799D01*
X181250Y13799D01*
X175768D01*
X164828Y14516D01*
X153958Y15947D01*
X143205Y18086D01*
X132615Y20923D01*
X122234Y24448D01*
X112105Y28643D01*
X102272Y33492D01*
X92777Y38974D01*
X83661Y45065D01*
X74963Y51739D01*
X66720Y58968D01*
X58968Y66720D01*
X51739Y74963D01*
X45065Y83661D01*
X38974Y92777D01*
X33492Y102272D01*
X28643Y112105D01*
X24448Y122234D01*
X20923Y132615D01*
X18086Y143205D01*
X15947Y153959D01*
X14516Y164828D01*
X13799Y175768D01*
X13799Y181250D01*
Y186732D01*
X14516Y197672D01*
X15947Y208542D01*
X18086Y219294D01*
X20923Y229884D01*
X24448Y240266D01*
X28643Y250395D01*
X33492Y260228D01*
X38974Y269723D01*
X45065Y278839D01*
X51739Y287537D01*
X58968Y295780D01*
X66720Y303532D01*
X74963Y310761D01*
X83661Y317435D01*
X92777Y323526D01*
X102272Y329008D01*
X112105Y333857D01*
X122234Y338052D01*
X132615Y341577D01*
X143205Y344414D01*
X153959Y346553D01*
X164828Y347984D01*
X175768Y348701D01*
X186732D01*
X197672Y347984D01*
D02*
G37*
%LPC*%
G36*
X230409Y324283D02*
X228039Y324283D01*
X225751Y323670D01*
X223698Y322485D01*
X222023Y320810D01*
X220838Y318757D01*
X220224Y316468D01*
X220224Y314099D01*
X220838Y311810D01*
X222023Y309757D01*
X223698Y308082D01*
X225751Y306897D01*
X228039Y306283D01*
X230409Y306284D01*
X232698Y306897D01*
X234750Y308082D01*
X236426Y309757D01*
X237611Y311810D01*
X238224Y314099D01*
X238224Y316468D01*
X237611Y318757D01*
X236426Y320810D01*
X234750Y322485D01*
X232698Y323670D01*
X230409Y324283D01*
D02*
G37*
G36*
X252060Y311784D02*
X249690Y311784D01*
X247401Y311170D01*
X245349Y309985D01*
X243673Y308310D01*
X243581Y308150D01*
X250509Y304149D01*
X254509Y311078D01*
X254349Y311170D01*
X252060Y311784D01*
D02*
G37*
G36*
X256241Y310078D02*
X252241Y303150D01*
X259169Y299149D01*
X259262Y299310D01*
X259875Y301599D01*
X259875Y303968D01*
X259262Y306257D01*
X258077Y308310D01*
X256401Y309985D01*
X256241Y310078D01*
D02*
G37*
G36*
X242581Y306418D02*
X242488Y306257D01*
X241875Y303968D01*
X241875Y301599D01*
X242488Y299310D01*
X243673Y297257D01*
X245349Y295582D01*
X245509Y295489D01*
X249509Y302418D01*
X242581Y306418D01*
D02*
G37*
G36*
X251241Y301418D02*
X247241Y294489D01*
X247401Y294397D01*
X249690Y293783D01*
X252060Y293783D01*
X254349Y294397D01*
X256401Y295582D01*
X258077Y297257D01*
X258169Y297418D01*
X251241Y301418D01*
D02*
G37*
G36*
X111194Y290000D02*
X108806D01*
X106601Y289086D01*
X104914Y287399D01*
X104000Y285194D01*
Y282806D01*
X104914Y280601D01*
X106601Y278913D01*
X108806Y278000D01*
X111194D01*
X113399Y278913D01*
X115087Y280601D01*
X116000Y282806D01*
Y285194D01*
X115087Y287399D01*
X113399Y289086D01*
X111194Y290000D01*
D02*
G37*
G36*
X269231Y302578D02*
X260231Y286989D01*
X275820Y277989D01*
X284820Y293578D01*
X269231Y302578D01*
D02*
G37*
G36*
X143194Y277000D02*
X140807D01*
X138601Y276087D01*
X136913Y274399D01*
X136000Y272194D01*
Y269806D01*
X136913Y267601D01*
X138601Y265913D01*
X140807Y265000D01*
X143194D01*
X145399Y265913D01*
X147086Y267601D01*
X148000Y269806D01*
Y272194D01*
X147086Y274399D01*
X145399Y276087D01*
X143194Y277000D01*
D02*
G37*
G36*
X59322Y267500D02*
X55678D01*
X52104Y266789D01*
X48737Y265394D01*
X45707Y263370D01*
X43130Y260793D01*
X41105Y257763D01*
X39711Y254396D01*
X39000Y250822D01*
Y247178D01*
X39711Y243604D01*
X41105Y240237D01*
X43130Y237207D01*
X45707Y234630D01*
X48737Y232605D01*
X52104Y231211D01*
X55678Y230500D01*
X59322D01*
X62896Y231211D01*
X66263Y232605D01*
X69293Y234630D01*
X71870Y237207D01*
X73895Y240237D01*
X75289Y243604D01*
X76000Y247178D01*
Y250822D01*
X75289Y254396D01*
X73895Y257763D01*
X71870Y260793D01*
X69293Y263370D01*
X66263Y265394D01*
X62896Y266789D01*
X59322Y267500D01*
D02*
G37*
G36*
X230194Y240337D02*
X227806D01*
X225601Y239423D01*
X223913Y237736D01*
X223000Y235530D01*
Y233143D01*
X223913Y230938D01*
X225601Y229250D01*
X227806Y228337D01*
X230194D01*
X232399Y229250D01*
X234087Y230938D01*
X235000Y233143D01*
Y235530D01*
X234087Y237736D01*
X232399Y239423D01*
X230194Y240337D01*
D02*
G37*
G36*
X211961D02*
X209574D01*
X207369Y239423D01*
X205681Y237736D01*
X204768Y235530D01*
Y233143D01*
X205681Y230938D01*
X207369Y229250D01*
X209574Y228337D01*
X211961D01*
X214167Y229250D01*
X215854Y230938D01*
X216768Y233143D01*
Y235530D01*
X215854Y237736D01*
X214167Y239423D01*
X211961Y240337D01*
D02*
G37*
G36*
X122193Y234750D02*
X119806D01*
X117601Y233836D01*
X115913Y232149D01*
X115000Y229944D01*
Y227556D01*
X115913Y225351D01*
X117601Y223663D01*
X119806Y222750D01*
X122193D01*
X124399Y223663D01*
X126087Y225351D01*
X127000Y227556D01*
Y229944D01*
X126087Y232149D01*
X124399Y233836D01*
X122193Y234750D01*
D02*
G37*
G36*
X101995Y220000D02*
X100005D01*
X98168Y219239D01*
X96761Y217832D01*
X96000Y215995D01*
Y214005D01*
X96761Y212168D01*
X98168Y210761D01*
X100005Y210000D01*
X101995D01*
X103832Y210761D01*
X105239Y212168D01*
X106000Y214005D01*
Y215995D01*
X105239Y217832D01*
X103832Y219239D01*
X101995Y220000D01*
D02*
G37*
G36*
X321157Y216590D02*
X318843D01*
X316607Y215991D01*
X314603Y214834D01*
X312966Y213197D01*
X311809Y211193D01*
X311210Y208957D01*
Y206643D01*
X311809Y204407D01*
X312966Y202403D01*
X314603Y200766D01*
X316607Y199609D01*
X318843Y199010D01*
X321157D01*
X323393Y199609D01*
X325397Y200766D01*
X327034Y202403D01*
X328191Y204407D01*
X328790Y206643D01*
Y208957D01*
X328191Y211193D01*
X327034Y213197D01*
X325397Y214834D01*
X323393Y215991D01*
X321157Y216590D01*
D02*
G37*
G36*
X54317Y212000D02*
X51684D01*
X49140Y211318D01*
X46860Y210002D01*
X44998Y208140D01*
X43682Y205860D01*
X43000Y203316D01*
Y200683D01*
X43682Y198140D01*
X44998Y195860D01*
X46860Y193998D01*
X49140Y192682D01*
X51684Y192000D01*
X54317D01*
X56860Y192682D01*
X59140Y193998D01*
X61002Y195860D01*
X62319Y198140D01*
X63000Y200683D01*
Y203316D01*
X62319Y205860D01*
X61002Y208140D01*
X59140Y210002D01*
X56860Y211318D01*
X54317Y212000D01*
D02*
G37*
G36*
X321157Y191190D02*
X321000D01*
Y183400D01*
X328790D01*
Y183557D01*
X328191Y185793D01*
X327034Y187797D01*
X325397Y189434D01*
X323393Y190591D01*
X321157Y191190D01*
D02*
G37*
G36*
X319000D02*
X318843D01*
X316607Y190591D01*
X314603Y189434D01*
X312966Y187797D01*
X311809Y185793D01*
X311210Y183557D01*
Y183400D01*
X319000D01*
Y191190D01*
D02*
G37*
G36*
X328790Y181400D02*
X321000D01*
Y173610D01*
X321157D01*
X323393Y174209D01*
X325397Y175366D01*
X327034Y177003D01*
X328191Y179007D01*
X328790Y181243D01*
Y181400D01*
D02*
G37*
G36*
X319000D02*
X311210D01*
Y181243D01*
X311809Y179007D01*
X312966Y177003D01*
X314603Y175366D01*
X316607Y174209D01*
X318843Y173610D01*
X319000D01*
Y181400D01*
D02*
G37*
G36*
X63000Y187000D02*
X43000D01*
Y167000D01*
X63000D01*
Y187000D01*
D02*
G37*
G36*
X198193Y168000D02*
X195807D01*
X193601Y167087D01*
X191914Y165399D01*
X189708Y165302D01*
X188432Y165831D01*
X186045D01*
X183839Y164917D01*
X182152Y163229D01*
X181238Y161024D01*
Y158637D01*
X182152Y156432D01*
X183839Y154744D01*
X186045Y153831D01*
X188432D01*
X190637Y154744D01*
X192325Y156432D01*
X194530Y156529D01*
X195807Y156000D01*
X198193D01*
X200399Y156913D01*
X202087Y158601D01*
X203000Y160807D01*
Y163193D01*
X202087Y165399D01*
X200399Y167087D01*
X198193Y168000D01*
D02*
G37*
G36*
X276000Y197082D02*
X273520Y196756D01*
X271209Y195798D01*
X269225Y194275D01*
X267702Y192291D01*
X266745Y189980D01*
X266418Y187500D01*
Y172500D01*
X266745Y170020D01*
X267702Y167709D01*
X269225Y165725D01*
X271209Y164202D01*
X273520Y163244D01*
X276000Y162918D01*
X278480Y163244D01*
X280791Y164202D01*
X282775Y165725D01*
X284298Y167709D01*
X285256Y170020D01*
X285582Y172500D01*
Y187500D01*
X285256Y189980D01*
X284298Y192291D01*
X282775Y194275D01*
X280791Y195798D01*
X278480Y196756D01*
X276000Y197082D01*
D02*
G37*
G36*
X84000D02*
X81520Y196756D01*
X79209Y195798D01*
X77224Y194275D01*
X75702Y192291D01*
X74745Y189980D01*
X74418Y187500D01*
Y172500D01*
X74745Y170020D01*
X75702Y167709D01*
X77224Y165725D01*
X79209Y164202D01*
X81520Y163244D01*
X84000Y162918D01*
X86480Y163244D01*
X88791Y164202D01*
X90775Y165725D01*
X92298Y167709D01*
X93255Y170020D01*
X93582Y172500D01*
Y187500D01*
X93255Y189980D01*
X92298Y192291D01*
X90775Y194275D01*
X88791Y195798D01*
X86480Y196756D01*
X84000Y197082D01*
D02*
G37*
G36*
X321157Y165790D02*
X318843D01*
X316607Y165191D01*
X314603Y164034D01*
X312966Y162397D01*
X311809Y160393D01*
X311210Y158157D01*
Y155843D01*
X311809Y153607D01*
X312966Y151603D01*
X314603Y149966D01*
X316607Y148809D01*
X318843Y148210D01*
X321157D01*
X323393Y148809D01*
X325397Y149966D01*
X327034Y151603D01*
X328191Y153607D01*
X328790Y155843D01*
Y158157D01*
X328191Y160393D01*
X327034Y162397D01*
X325397Y164034D01*
X323393Y165191D01*
X321157Y165790D01*
D02*
G37*
G36*
X239319Y154125D02*
X236931D01*
X234726Y153212D01*
X233038Y151524D01*
X232125Y149319D01*
Y146931D01*
X233038Y144726D01*
X234726Y143038D01*
X236931Y142125D01*
X239319D01*
X241524Y143038D01*
X243212Y144726D01*
X244125Y146931D01*
Y149319D01*
X243212Y151524D01*
X241524Y153212D01*
X239319Y154125D01*
D02*
G37*
G36*
X102193Y151000D02*
X99806D01*
X97601Y150086D01*
X95913Y148399D01*
X95000Y146194D01*
Y143806D01*
X95913Y141601D01*
X97601Y139913D01*
X99806Y139000D01*
X102193D01*
X104399Y139913D01*
X106087Y141601D01*
X107000Y143806D01*
Y146194D01*
X106087Y148399D01*
X104399Y150086D01*
X102193Y151000D01*
D02*
G37*
G36*
X37194Y135000D02*
X34806D01*
X32601Y134087D01*
X30914Y132399D01*
X30000Y130194D01*
Y127807D01*
X30914Y125601D01*
X32601Y123913D01*
X34806Y123000D01*
X37194D01*
X39399Y123913D01*
X41087Y125601D01*
X42000Y127807D01*
Y130194D01*
X41087Y132399D01*
X39399Y134087D01*
X37194Y135000D01*
D02*
G37*
G36*
X97193Y115000D02*
X94806D01*
X92601Y114087D01*
X90913Y112399D01*
X90000Y110194D01*
Y107807D01*
X90913Y105601D01*
X92601Y103913D01*
X94806Y103000D01*
X97193D01*
X99399Y103913D01*
X101087Y105601D01*
X102000Y107807D01*
Y110194D01*
X101087Y112399D01*
X99399Y114087D01*
X97193Y115000D01*
D02*
G37*
G36*
X102193Y101000D02*
X99806D01*
X97601Y100086D01*
X95913Y98399D01*
X95000Y96194D01*
Y93806D01*
X95913Y91601D01*
X97601Y89913D01*
X99806Y89000D01*
X102193D01*
X104399Y89913D01*
X106087Y91601D01*
X107000Y93806D01*
Y96194D01*
X106087Y98399D01*
X104399Y100086D01*
X102193Y101000D01*
D02*
G37*
G36*
X84742Y99815D02*
X82355D01*
X80150Y98902D01*
X78463Y97214D01*
X77549Y95008D01*
Y92621D01*
X78463Y90416D01*
X80150Y88728D01*
X82355Y87815D01*
X84742D01*
X86948Y88728D01*
X88636Y90416D01*
X89549Y92621D01*
Y95008D01*
X88636Y97214D01*
X86948Y98902D01*
X84742Y99815D01*
D02*
G37*
G36*
X280560Y88077D02*
X277967Y87619D01*
X275581Y86507D01*
X275338Y86303D01*
X281123Y79409D01*
X288018Y85194D01*
X287814Y85436D01*
X285657Y86947D01*
X283183Y87847D01*
X280560Y88077D01*
D02*
G37*
G36*
X159980Y87000D02*
X156820D01*
X153768Y86182D01*
X151032Y84602D01*
X148798Y82368D01*
X147218Y79632D01*
X146735Y77831D01*
X144665D01*
X144182Y79632D01*
X142602Y82368D01*
X140368Y84602D01*
X137632Y86182D01*
X134580Y87000D01*
X131420D01*
X128368Y86182D01*
X125632Y84602D01*
X123398Y82368D01*
X121818Y79632D01*
X121000Y76580D01*
Y73420D01*
X121818Y70368D01*
X123398Y67632D01*
X125632Y65398D01*
X128368Y63818D01*
X131420Y63000D01*
X134580D01*
X137632Y63818D01*
X140368Y65398D01*
X142602Y67632D01*
X144182Y70368D01*
X144665Y72169D01*
X146735D01*
X147218Y70368D01*
X148798Y67632D01*
X151032Y65398D01*
X153768Y63818D01*
X156820Y63000D01*
X159980D01*
X163032Y63818D01*
X165768Y65398D01*
X168002Y67632D01*
X169582Y70368D01*
X170400Y73420D01*
Y76580D01*
X169582Y79632D01*
X168002Y82368D01*
X165768Y84602D01*
X163032Y86182D01*
X159980Y87000D01*
D02*
G37*
G36*
X273806Y85018D02*
X273564Y84814D01*
X272053Y82657D01*
X271153Y80183D01*
X270923Y77560D01*
X271381Y74967D01*
X272493Y72581D01*
X272697Y72338D01*
X279591Y78123D01*
X273806Y85018D01*
D02*
G37*
G36*
X289303Y83662D02*
X282409Y77877D01*
X288194Y70982D01*
X288436Y71186D01*
X289947Y73343D01*
X290847Y75817D01*
X291077Y78440D01*
X290619Y81033D01*
X289507Y83419D01*
X289303Y83662D01*
D02*
G37*
G36*
X280877Y76591D02*
X273982Y70806D01*
X274186Y70564D01*
X276343Y69053D01*
X278817Y68153D01*
X281440Y67923D01*
X284033Y68381D01*
X286419Y69493D01*
X286662Y69697D01*
X280877Y76591D01*
D02*
G37*
G36*
X157400Y59000D02*
X156820D01*
X153768Y58182D01*
X151032Y56602D01*
X148798Y54368D01*
X147218Y51632D01*
X146735Y49831D01*
X144665D01*
X144182Y51632D01*
X142602Y54368D01*
X140368Y56602D01*
X137632Y58182D01*
X134580Y59000D01*
X131420D01*
X128368Y58182D01*
X125632Y56602D01*
X123398Y54368D01*
X121818Y51632D01*
X121000Y48580D01*
Y45420D01*
X121818Y42368D01*
X123398Y39632D01*
X125632Y37398D01*
X128368Y35818D01*
X131420Y35000D01*
X134580D01*
X137632Y35818D01*
X140368Y37398D01*
X142602Y39632D01*
X144182Y42368D01*
X144665Y44169D01*
X146735D01*
X147218Y42368D01*
X148798Y39632D01*
X151032Y37398D01*
X153768Y35818D01*
X156820Y35000D01*
X157400D01*
Y47000D01*
Y59000D01*
D02*
G37*
G36*
X159980D02*
X159400D01*
Y48000D01*
X170400D01*
Y48580D01*
X169582Y51632D01*
X168002Y54368D01*
X165768Y56602D01*
X163032Y58182D01*
X159980Y59000D01*
D02*
G37*
G36*
X263081Y76019D02*
X247761Y63163D01*
X260616Y47842D01*
X275937Y60698D01*
X263081Y76019D01*
D02*
G37*
G36*
X170400Y46000D02*
X159400D01*
Y35000D01*
X159980D01*
X163032Y35818D01*
X165768Y37398D01*
X168002Y39632D01*
X169582Y42368D01*
X170400Y45420D01*
Y46000D01*
D02*
G37*
G36*
X209572Y59250D02*
X205928D01*
X202354Y58539D01*
X198987Y57144D01*
X195957Y55120D01*
X193380Y52543D01*
X191355Y49513D01*
X189961Y46146D01*
X189250Y42572D01*
Y38928D01*
X189961Y35354D01*
X191355Y31987D01*
X193380Y28957D01*
X195957Y26380D01*
X198987Y24355D01*
X202354Y22961D01*
X205928Y22250D01*
X209572D01*
X213146Y22961D01*
X216513Y24355D01*
X219543Y26380D01*
X222120Y28957D01*
X224144Y31987D01*
X225539Y35354D01*
X226250Y38928D01*
Y42572D01*
X225539Y46146D01*
X224144Y49513D01*
X222120Y52543D01*
X219543Y55120D01*
X216513Y57144D01*
X213146Y58539D01*
X209572Y59250D01*
D02*
G37*
%LPD*%
D57*
X281000Y78000D02*
D03*
D58*
X250875Y302784D02*
D03*
D68*
X320000Y182400D02*
D03*
D69*
X158400Y47000D02*
D03*
D72*
X182000Y251500D02*
D03*
X109000Y137000D02*
D03*
X247000Y201000D02*
D03*
X67000Y280000D02*
D03*
X71000Y140000D02*
D03*
X199399Y336913D02*
D03*
X202000Y298000D02*
D03*
X132235Y230529D02*
D03*
X232000Y246000D02*
D03*
X292000Y287806D02*
D03*
D73*
X187157Y116407D02*
D03*
M02*
